<svg
  viewBox="0 0 1024 1024"
  version="1.1"
  xmlns="http://www.w3.org/2000/svg"
>
  <path
    d="M770.63802083 933.875H216.92708332c-44.82421875 0-79.1015625-34.27734375-79.10156249-79.1015625V195.59374999h553.7109375c44.82421875 0 79.1015625 34.27734375 79.1015625 79.10156251v659.1796875zM190.55989583 248.328125v606.4453125c0 15.8203125 10.546875 26.3671875 26.36718751 26.3671875h500.97656249V274.6953125c0-15.8203125-10.546875-26.3671875-26.3671875-26.3671875H190.55989583z"
  />
  <path
    d="M612.43489583 424.98828125H296.02864583c-13.18359375 0-26.3671875-10.546875-26.3671875-26.3671875 0-13.18359375 10.546875-26.3671875 26.3671875-26.3671875h316.40625c13.18359375 0 26.3671875 10.546875 26.36718751 26.3671875 0 13.18359375-13.18359375 26.3671875-26.36718751 26.3671875z m0 131.8359375H296.02864583c-13.18359375 0-26.3671875-10.546875-26.3671875-26.3671875 0-13.18359375 10.546875-26.3671875 26.3671875-26.3671875h316.40625c13.18359375 0 26.3671875 10.546875 26.36718751 26.3671875 0 13.18359375-13.18359375 26.3671875-26.36718751 26.3671875z m0 131.8359375H296.02864583c-13.18359375 0-26.3671875-10.546875-26.3671875-26.3671875 0-13.18359375 10.546875-26.3671875 26.3671875-26.3671875h316.40625c13.18359375 0 26.3671875 10.546875 26.36718751 26.3671875 0 13.18359375-13.18359375 26.3671875-26.36718751 26.3671875z"
  />
  <path
    d="M828.64583333 90.125h-527.34375001c-15.8203125 0-26.3671875 10.546875-26.36718749 26.3671875s10.546875 26.3671875 26.36718751 26.3671875h527.34374999c15.8203125 0 26.3671875 10.546875 26.3671875 26.3671875v606.4453125H823.37239583v52.73437499h84.375V169.2265625c0-44.82421875-36.9140625-79.1015625-79.1015625-79.1015625z"
  />
  <path
    d="M797.00520833 802.0390625a26.3671875 26.3671875 0 1 0 52.73437501 0 26.3671875 26.3671875 0 1 0-52.73437501 0z"
  />
</svg>
